<svg width="43" height="19" viewBox="0 0 43 19" fill="none" xmlns="http://www.w3.org/2000/svg">
<path d="M2.55367 15.62C2.55367 15.82 2.71367 16 2.93367 16H10.8137C11.0337 16 11.1937 15.82 11.1937 15.62V15.04C11.1937 14.84 11.0337 14.66 10.8137 14.66H4.09367V9.56H9.83367C10.0337 9.56 10.2137 9.4 10.2137 9.18V8.6C10.2137 8.4 10.0337 8.22 9.83367 8.22H4.09367V3.34H10.8137C11.0337 3.34 11.1937 3.16 11.1937 2.96V2.38C11.1937 2.18 11.0337 2 10.8137 2H2.93367C2.71367 2 2.55367 2.18 2.55367 2.38V15.62ZM14.3896 15.62C14.3896 15.82 14.5696 16 14.7696 16H15.4696C15.6896 16 15.8496 15.82 15.8496 15.62V4.74H15.8696L25.0496 16.2H25.4096C25.6096 16.2 25.7896 16.04 25.7896 15.84V2.38C25.7896 2.18 25.6096 2 25.4096 2H24.7096C24.4896 2 24.3296 2.18 24.3296 2.38V13.04C24.3096 13.04 24.3096 13.04 24.2896 13.04L15.2696 1.8H14.7696C14.5696 1.8 14.3896 1.96 14.3896 2.16V15.62ZM28.8579 9.02C28.8579 13.02 32.0779 16.2 36.0779 16.2C38.9779 16.2 41.0179 14.88 41.0179 14.88C41.0979 14.82 41.1779 14.66 41.1779 14.56V9.98C41.1779 9.78 41.0179 9.6 40.8179 9.6H37.3579C37.1379 9.6 36.9779 9.76 36.9779 9.98V10.72C36.9779 10.92 37.1379 11.08 37.3579 11.08H39.6579V13.88C39.6579 13.88 38.2579 14.72 36.0579 14.72C32.8979 14.72 30.4979 12.02 30.4979 8.94C30.4979 5.84 32.8979 3.2 36.0579 3.2C37.3979 3.2 38.8379 3.86 39.8579 4.76C40.0779 4.96 40.1979 4.98 40.3779 4.78C40.5379 4.6 40.7579 4.4 40.9379 4.22C41.0979 4.06 41.0779 3.82 40.9179 3.66C39.5579 2.5 38.0979 1.8 36.0779 1.8C32.0779 1.8 28.8579 5.02 28.8579 9.02Z" fill="white"/>
</svg>
