<svg width="35" height="19" viewBox="0 0 35 19" fill="none" xmlns="http://www.w3.org/2000/svg">
<path d="M2.62594 15.62C2.62594 15.82 2.78594 16 3.00594 16H10.8859C11.1059 16 11.2659 15.82 11.2659 15.62V15.04C11.2659 14.84 11.1059 14.66 10.8859 14.66H4.16594V9.56H9.90594C10.1059 9.56 10.2859 9.4 10.2859 9.18V8.6C10.2859 8.4 10.1059 8.22 9.90594 8.22H4.16594V3.34H10.8859C11.1059 3.34 11.2659 3.16 11.2659 2.96V2.38C11.2659 2.18 11.1059 2 10.8859 2H3.00594C2.78594 2 2.62594 2.18 2.62594 2.38V15.62ZM13.6819 14.58C13.9419 14.82 15.5419 16.2 17.9019 16.2C20.2419 16.2 22.2219 14.68 22.2219 12.6C22.2219 10.28 20.4819 9.26 17.7819 8.16C16.1019 7.46 15.0819 6.68 15.0819 5.34C15.0819 4.5 15.7219 3.14 17.8419 3.14C19.0619 3.14 20.3219 3.98 20.4619 4.06C20.7819 4.24 20.9819 4.16 21.1619 3.88C21.2419 3.76 21.3219 3.62 21.4019 3.5C21.6419 3.12 21.4019 2.88 21.2819 2.82C21.2819 2.82 19.8219 1.8 17.8619 1.8C14.6819 1.8 13.6019 4 13.6019 5.36C13.6019 7.64 14.9219 8.54 17.1219 9.5C19.4219 10.46 20.6219 11.28 20.6219 12.66C20.6219 13.84 19.5619 14.86 17.9419 14.86C16.1619 14.86 14.7019 13.46 14.5619 13.34C14.2819 13.1 14.0619 13.26 13.8619 13.52C13.7619 13.64 13.6619 13.78 13.5619 13.9C13.3219 14.28 13.5219 14.44 13.6819 14.58ZM25.1259 15.62C25.1259 15.82 25.2859 16 25.5059 16H26.2659C26.4659 16 26.6459 15.82 26.6459 15.62V10.92H29.9459C32.3859 10.92 34.4059 8.9 34.4059 6.42C34.4059 4 32.3859 2 29.9259 2H25.5059C25.2859 2 25.1259 2.18 25.1259 2.38V15.62ZM26.6459 9.44V3.52H29.8259C31.4659 3.52 32.8659 4.76 32.8659 6.38C32.8659 8.1 31.4659 9.44 29.8259 9.44H26.6459Z" fill="#7E7E7E"/>
</svg>
