<svg width="16" height="80" viewBox="0 0 16 80" fill="none" xmlns="http://www.w3.org/2000/svg">
<path d="M1.38 0.719999C1.18 0.719999 1 0.879999 1 1.1L1 3.46C1 3.66 1.18 3.84 1.38 3.84L6.24 3.84L6.24 8.4C6.24 8.6 6.42 8.78 6.62 8.78L8.8 8.78C9 8.78 9.18 8.6 9.18 8.4L9.18 3.84L12.06 3.84L12.06 9.38C12.06 9.6 12.24 9.76 12.44 9.76L14.62 9.76C14.82 9.76 15 9.6 15 9.38L15 1.1C15 0.88 14.82 0.72 14.62 0.72L1.38 0.719999ZM7.98 10.9695C3.98 10.9695 0.799999 14.1495 0.799999 18.1495C0.799999 22.1495 3.98 25.3495 7.98 25.3495C11.98 25.3495 15.2 22.1495 15.2 18.1495C15.2 14.1495 11.98 10.9695 7.98 10.9695ZM7.98 14.1695C10.18 14.1695 12 15.9695 12 18.1495C12 20.3495 10.18 22.1495 7.98 22.1495C5.8 22.1495 4 20.3495 4 18.1495C4 15.9695 5.8 14.1695 7.98 14.1695ZM1.38 27.7708C1.18 27.7708 0.999999 27.9308 0.999999 28.1508L0.999998 35.6708C0.999998 35.8908 1.18 36.0508 1.38 36.0508L3.56 36.0508C3.76 36.0508 3.94 35.8908 3.94 35.6708L3.94 30.9108L14.62 30.9108C14.82 30.9108 15 30.7308 15 30.5308L15 28.1508C15 27.9308 14.82 27.7708 14.62 27.7708L1.38 27.7708ZM1.38 37.9856C1.18 37.9856 0.999998 38.1456 0.999998 38.3656L0.999998 45.8856C0.999998 46.1056 1.18 46.2656 1.38 46.2656L3.56 46.2656C3.76 46.2656 3.94 46.1056 3.94 45.8856L3.94 41.1256L14.62 41.1256C14.82 41.1256 15 40.9456 15 40.7456L15 38.3656C15 38.1456 14.82 37.9856 14.62 37.9856L1.38 37.9856ZM7.98 47.1023C3.98 47.1023 0.799998 50.2823 0.799998 54.2823C0.799997 58.2823 3.98 61.4823 7.98 61.4823C11.98 61.4823 15.2 58.2823 15.2 54.2823C15.2 50.2823 11.98 47.1023 7.98 47.1023ZM7.98 50.3023C10.18 50.3023 12 52.1023 12 54.2823C12 56.4823 10.18 58.2823 7.98 58.2823C5.8 58.2823 4 56.4823 4 54.2823C4 52.1023 5.8 50.3023 7.98 50.3023ZM1.08 66.3459C0.919997 66.3859 0.799997 66.5459 0.799997 66.7059L0.799997 67.0259C0.799997 67.1659 0.899997 67.3059 1.02 67.3659L9.2 71.0059L9.2 71.0659L1.02 74.7259C0.899997 74.7859 0.799997 74.9259 0.799997 75.0659L0.799997 75.3859C0.799997 75.5459 0.919997 75.7059 1.08 75.7459L14.52 79.5259C14.8 79.6059 15 79.4459 15 79.1659L15 76.8259C15 76.6659 14.86 76.5059 14.72 76.4659L7.94 74.7459L7.94 74.6659L14.98 71.5659C15.1 71.5259 15.2 71.4059 15.2 71.2259L15.2 70.8659C15.2 70.7059 15.1 70.5859 14.98 70.5259L7.94 67.4259L7.94 67.3459L14.72 65.6259C14.86 65.5859 15 65.4259 15 65.2659L15 62.9259C15 62.6459 14.8 62.4859 14.52 62.5659L1.08 66.3459Z" fill="#7E7E7E"/>
</svg>
