<svg width="125" height="19" viewBox="0 0 125 19" fill="none" xmlns="http://www.w3.org/2000/svg">
<path d="M31.4052 15.62C31.4052 15.82 31.5652 16 31.7852 16H38.7052C38.9252 16 39.0852 15.82 39.0852 15.62V15.04C39.0852 14.84 38.9252 14.66 38.7052 14.66H32.9452V2.38C32.9452 2.18 32.7652 2 32.5652 2H31.7852C31.5652 2 31.4052 2.18 31.4052 2.38V15.62ZM40.0141 9.02C40.0141 13.02 43.1941 16.2 47.1941 16.2C51.1941 16.2 54.3941 13.02 54.3941 9.02C54.3941 5.02 51.1941 1.8 47.1941 1.8C43.1941 1.8 40.0141 5.02 40.0141 9.02ZM41.4141 9.02C41.4141 5.84 44.0141 3.2 47.1941 3.2C50.3741 3.2 52.9941 5.84 52.9941 9.02C52.9941 12.2 50.3741 14.8 47.1941 14.8C44.0141 14.8 41.4141 12.2 41.4141 9.02ZM56.4399 9.02C56.4399 13.02 59.6599 16.2 63.6599 16.2C66.5599 16.2 68.5999 14.88 68.5999 14.88C68.6799 14.82 68.7599 14.66 68.7599 14.56V9.98C68.7599 9.78 68.5999 9.6 68.3999 9.6H64.9399C64.7199 9.6 64.5599 9.76 64.5599 9.98V10.72C64.5599 10.92 64.7199 11.08 64.9399 11.08H67.2399V13.88C67.2399 13.88 65.8399 14.72 63.6399 14.72C60.4799 14.72 58.0799 12.02 58.0799 8.94C58.0799 5.84 60.4799 3.2 63.6399 3.2C64.9799 3.2 66.4199 3.86 67.4399 4.76C67.6599 4.96 67.7799 4.98 67.9599 4.78C68.1199 4.6 68.3399 4.4 68.5199 4.22C68.6799 4.06 68.6599 3.82 68.4999 3.66C67.1399 2.5 65.6799 1.8 63.6599 1.8C59.6599 1.8 56.4399 5.02 56.4399 9.02ZM76.542 15.62C76.542 15.82 76.722 16 76.922 16H77.722C77.922 16 78.102 15.82 78.102 15.62V2.38C78.102 2.18 77.922 2 77.722 2H76.922C76.722 2 76.542 2.18 76.542 2.38V15.62ZM82.1865 15.62C82.1865 15.82 82.3665 16 82.5665 16H83.2665C83.4865 16 83.6465 15.82 83.6465 15.62V4.74H83.6665L92.8465 16.2H93.2065C93.4065 16.2 93.5865 16.04 93.5865 15.84V2.38C93.5865 2.18 93.4065 2 93.2065 2H92.5065C92.2865 2 92.1265 2.18 92.1265 2.38V13.04C92.1065 13.04 92.1065 13.04 92.0865 13.04L83.0665 1.8H82.5665C82.3665 1.8 82.1865 1.96 82.1865 2.16V15.62Z" fill="#7E7E7E"/>
</svg>
