<svg width="125" height="19" viewBox="0 0 125 19" fill="none" xmlns="http://www.w3.org/2000/svg">
<path d="M25.2053 14.58C25.4653 14.82 27.0653 16.2 29.4253 16.2C31.7653 16.2 33.7453 14.68 33.7453 12.6C33.7453 10.28 32.0053 9.26 29.3053 8.16C27.6253 7.46 26.6053 6.68 26.6053 5.34C26.6053 4.5 27.2453 3.14 29.3653 3.14C30.5853 3.14 31.8453 3.98 31.9853 4.06C32.3053 4.24 32.5053 4.16 32.6853 3.88C32.7653 3.76 32.8453 3.62 32.9253 3.5C33.1653 3.12 32.9253 2.88 32.8053 2.82C32.8053 2.82 31.3453 1.8 29.3853 1.8C26.2053 1.8 25.1253 4 25.1253 5.36C25.1253 7.64 26.4453 8.54 28.6453 9.5C30.9453 10.46 32.1453 11.28 32.1453 12.66C32.1453 13.84 31.0853 14.86 29.4653 14.86C27.6853 14.86 26.2253 13.46 26.0853 13.34C25.8053 13.1 25.5853 13.26 25.3853 13.52C25.2853 13.64 25.1853 13.78 25.0853 13.9C24.8453 14.28 25.0453 14.44 25.2053 14.58ZM36.6494 15.62C36.6494 15.82 36.8294 16 37.0294 16H37.8294C38.0294 16 38.2094 15.82 38.2094 15.62V2.38C38.2094 2.18 38.0294 2 37.8294 2H37.0294C36.8294 2 36.6494 2.18 36.6494 2.38V15.62ZM41.2739 9.02C41.2739 13.02 44.4939 16.2 48.4939 16.2C51.3939 16.2 53.4339 14.88 53.4339 14.88C53.5139 14.82 53.5939 14.66 53.5939 14.56V9.98C53.5939 9.78 53.4339 9.6 53.2339 9.6H49.7739C49.5539 9.6 49.3939 9.76 49.3939 9.98V10.72C49.3939 10.92 49.5539 11.08 49.7739 11.08H52.0739V13.88C52.0739 13.88 50.6739 14.72 48.4739 14.72C45.3139 14.72 42.9139 12.02 42.9139 8.94C42.9139 5.84 45.3139 3.2 48.4739 3.2C49.8139 3.2 51.2539 3.86 52.2739 4.76C52.4939 4.96 52.6139 4.98 52.7939 4.78C52.9539 4.6 53.1739 4.4 53.3539 4.22C53.5139 4.06 53.4939 3.82 53.3339 3.66C51.9739 2.5 50.5139 1.8 48.4939 1.8C44.4939 1.8 41.2739 5.02 41.2739 9.02ZM56.9423 15.62C56.9423 15.82 57.1223 16 57.3223 16H58.0223C58.2423 16 58.4023 15.82 58.4023 15.62V4.74H58.4223L67.6023 16.2H67.9623C68.1623 16.2 68.3423 16.04 68.3423 15.84V2.38C68.3423 2.18 68.1623 2 67.9623 2H67.2623C67.0423 2 66.8823 2.18 66.8823 2.38V13.04C66.8623 13.04 66.8623 13.04 66.8423 13.04L57.8223 1.8H57.3223C57.1223 1.8 56.9423 1.96 56.9423 2.16V15.62ZM76.6842 10.84C76.6842 13.88 78.8242 16.2 81.9642 16.2C85.1242 16.2 87.2842 13.88 87.2842 10.84V2.38C87.2842 2.18 87.1042 2 86.9042 2H86.1442C85.9242 2 85.7642 2.18 85.7642 2.38V10.76C85.7642 13.04 84.3242 14.78 81.9642 14.78C79.6242 14.78 78.2042 13 78.2042 10.72V2.38C78.2042 2.18 78.0442 2 77.8242 2H77.0642C76.8642 2 76.6842 2.18 76.6842 2.38V10.84ZM91.1806 15.62C91.1806 15.82 91.3406 16 91.5606 16H92.3206C92.5206 16 92.7006 15.82 92.7006 15.62V10.92H96.0006C98.4406 10.92 100.461 8.9 100.461 6.42C100.461 4 98.4406 2 95.9806 2H91.5606C91.3406 2 91.1806 2.18 91.1806 2.38V15.62ZM92.7006 9.44V3.52H95.8806C97.5206 3.52 98.9206 4.76 98.9206 6.38C98.9206 8.1 97.5206 9.44 95.8806 9.44H92.7006Z" fill="white"/>
</svg>
